<?xml version="1.0" encoding="utf-8"?>
<!-- Generator: Adobe Illustrator 21.1.0, SVG Export Plug-In . SVG Version: 6.00 Build 0)  -->
<svg version="1.1" id="Layer_1" xmlns="http://www.w3.org/2000/svg" xmlns:xlink="http://www.w3.org/1999/xlink" x="0px" y="0px"
	 viewBox="0 0 166 129" style="enable-background:new 0 0 166 129;" xml:space="preserve">
<style type="text/css">
	.st0{fill:none;stroke:#397193;stroke-width:4;}
	.st1{fill:#397193;stroke:#397193;}
</style>
<title>180 - iPhone 6 Plus</title>
<desc>Created with Sketch.</desc>
<g id="Page-1">
	<g id="_x31_80---iPhone-6-Plus">
		<g id="Group-4" transform="translate(18.000000, 35.000000)">
			<g id="Group" transform="translate(0.000000, 0.705936)">
				<path id="Path-4" class="st0" d="M59.4,18.7c-3.3-4.1-8.5-12.3-12.6-16.3c-4.7-4.5-9.8-8.6-15.8-9C15.9-7.6,10.9,3.7,8.9,5.4
					s-14.4,5.7-14.4,5.7S9,15.7,12.8,20.3"/>
				<path id="Path-2" class="st0" d="M111.9,16.1L62.7,40c0,0-3.5,1.9-5.6,5.5c-2.7,4.7-3.1,12.8,4.2,17.7c7.8,5.2,15.7-1,18-4.7
					c1-1.6,1.6-4.2,1.6-6.4c0-2.7-0.7-4.8-0.7-4.8"/>
				<path id="Path-2_1_" class="st0" d="M122.1-0.3L58.2,30.8c0,0-6.2,3.4-9.9,9.8C43.6,49,42.8,63.4,55.8,72
					c8.8,5.8,17.8,4.6,24,0.8c3.5-2.1,6-5.4,7.4-7.8c2.5-4.1,3.3-8.9,3.3-12.8c0-4.8-1.3-8.6-1.3-8.6"/>
				<path id="Path-2_2_" class="st0" d="M133.5-17.1L54.4,21.4c0,0-9,4.9-14.2,14.2c-6.8,12.1-8,32.9,10.7,45.3
					c12.6,8.4,25.8,5.7,35-0.2c5.3-3.4,9-8.3,11.1-11.8c2.5-4.2,4-10.9,4.1-16.5c0-6.9-1.8-12.4-1.8-12.4"/>
				
					<ellipse id="Oval" transform="matrix(0.8988 -0.4384 0.4384 0.8988 11.7011 53.4194)" class="st1" cx="121.5" cy="1.4" rx="4.2" ry="4.2"/>
				
					<ellipse id="Oval_1_" transform="matrix(0.8988 -0.4384 0.4384 0.8988 4.2737 50.897)" class="st1" cx="112.4" cy="16.2" rx="4.2" ry="4.2"/>
			</g>
			
				<ellipse id="Oval_2_" transform="matrix(0.8988 -0.4384 0.4384 0.8988 19.8903 56.4177)" class="st1" cx="132.1" cy="-14.9" rx="4.2" ry="4.2"/>
		</g>
	</g>
</g>
</svg>
