<?xml version="1.0" encoding="utf-8"?>
<!-- Generator: Adobe Illustrator 21.1.0, SVG Export Plug-In . SVG Version: 6.00 Build 0)  -->
<svg version="1.1" id="Layer_1" xmlns="http://www.w3.org/2000/svg" xmlns:xlink="http://www.w3.org/1999/xlink" x="0px" y="0px"
	 viewBox="0 0 438 126" style="enable-background:new 0 0 438 126;" xml:space="preserve">
<style type="text/css">
	.st0{fill:none;stroke:#397193;stroke-width:4;}
	.st1{fill:#397193;stroke:#397193;}
	.st2{fill:none;}
	.st3{fill:#444444;}
	.st4{font-family:'HelveticaNeue-Medium';}
	.st5{font-size:55px;}
</style>
<title>180 - iPhone 6 Plus</title>
<desc>Created with Sketch.</desc>
<g id="Page-1">
	<g id="_x31_80---iPhone-6-Plus">
		<g id="Group-4" transform="translate(18.000000, 35.000000)">
			<g id="Group" transform="translate(0.000000, 0.705936)">
				<path id="Path-4" class="st0" d="M60.4,11.7C57.1,7.7,51.9-0.6,47.9-4.5c-4.7-4.5-9.8-8.6-15.8-9C16.9-14.6,11.9-3.3,9.9-1.6
					C8,0.1-4.4,4.1-4.4,4.1S10,8.7,13.8,13.3"/>
				<path id="Path-2" class="st0" d="M112.9,9.1L63.7,33c0,0-3.5,1.9-5.6,5.5c-2.7,4.7-3.1,12.8,4.2,17.7c7.8,5.2,15.7-1,18-4.7
					c1-1.6,1.6-4.2,1.6-6.4c0-2.7-0.7-4.8-0.7-4.8"/>
				<path id="Path-2_1_" class="st0" d="M123.1-7.3L59.2,23.8c0,0-6.2,3.4-9.9,9.8C44.6,42,43.8,56.4,56.8,65
					c8.8,5.8,17.8,4.6,24,0.8c3.5-2.1,6-5.4,7.4-7.8c2.5-4.1,3.3-8.9,3.3-12.8c0-4.8-1.3-8.6-1.3-8.6"/>
				<path id="Path-2_2_" class="st0" d="M134.5-24.1L55.4,14.4c0,0-9,4.9-14.2,14.2c-6.8,12.1-8,32.9,10.7,45.3
					c12.6,8.4,25.8,5.7,35-0.2c5.3-3.4,9-8.3,11.1-11.8c2.5-4.2,4-10.9,4.1-16.5c0-6.9-1.8-12.4-1.8-12.4"/>
				
					<ellipse id="Oval" transform="matrix(0.8988 -0.4384 0.4384 0.8988 14.8709 53.1493)" class="st1" cx="122.5" cy="-5.6" rx="4.2" ry="4.2"/>
				
					<ellipse id="Oval_1_" transform="matrix(0.8988 -0.4384 0.4384 0.8988 7.4435 50.627)" class="st1" cx="113.4" cy="9.2" rx="4.2" ry="4.2"/>
			</g>
			
				<ellipse id="Oval_2_" transform="matrix(0.8988 -0.4384 0.4384 0.8988 23.0601 56.1477)" class="st1" cx="133.1" cy="-21.9" rx="4.2" ry="4.2"/>
		</g>
	</g>
</g>
<rect x="154.4" y="38.3" class="st2" width="312.1" height="83"/>
<text transform="matrix(1 0 0 1 154.3675 77.5801)" class="st3 st4 st5">OpenChirp</text>
</svg>
